# xmcd CD database file
#
# Track frame offsets:
#	150
#	19452
#	73050
#	120445
#	170000
#	231857
#	250685
#	265820
#	279882
#
# Disc length: 3984 seconds
#
# Revision: 0
# Processed by: cddbd v1.5.1PL0 Copyright (c) Steve Scherf et al.
# Submitted via: CDex 1.51
#
DISCID=790f8e09
DTITLE=國府田マリ子 - ツインビーPARADISE Vol.4
DYEAR=1994
DGENRE=Game
TTITLE0=Twin memories -ノーマルバージョン-
TTITLE1=第13話　「2月13日の日曜日」　part 1　〜タンポポタウンに迫る危機〜
TTITLE2=第14話　「2月13日の日曜日」　part 2　〜血を下さい……〜
TTITLE3=第15話　「2月13日の日曜日」　part 3　〜ガスの弱点〜
TTITLE4=第16話　「2月13日の日曜日」　part 4　〜ガスの発生源を撃て！〜
TTITLE5=ショートダイアリーウィンビー編 -ウィンビー アイドル化計画-
TTITLE6=MUSIC FILE #5 -遊星からの物体Y BGM-
TTITLE7=MUSIC FILE #6 -歌謡サスペンス劇場 BGM-
TTITLE8=HOPE -カラオケ-
EXTD=YEAR: 1994
EXTT0=
EXTT1=
EXTT2=
EXTT3=
EXTT4=
EXTT5=
EXTT6=
EXTT7=
EXTT8=
PLAYORDER=
